<svg width="22" height="22" viewBox="0 0 22 22" fill="none" xmlns="http://www.w3.org/2000/svg">
<path
    fill-rule="evenodd"
    clip-rule="evenodd"
    d="M0 11C0 17.0751 4.92487 22 11 22C17.0751 22 22 17.0751 22 11C22 4.92487 17.0751 0 11 0C4.92487 0 0 4.92487 0 11ZM2 11C2 15.9706 6.02944 20 11 20C15.9706 20 20 15.9706 20 11C20 6.02944 15.9706 2 11 2C6.02944 2 2 6.02944 2 11Z"
    fill="#878787"
  />
<path
    d="M12.7339 14.4675L9.19834 10.9953L12.7339 7.52313C12.8183 7.44028 12.8852 7.34192 12.9308 7.23367C12.9765 7.12542 13 7.0094 13 6.89223C13 6.77506 12.9765 6.65904 12.9308 6.55079C12.8852 6.44254 12.8183 6.34418 12.7339 6.26133C12.6495 6.17848 12.5494 6.11276 12.4392 6.06792C12.3289 6.02308 12.2108 6 12.0915 6C11.9722 6 11.854 6.02308 11.7438 6.06792C11.6336 6.11276 11.5334 6.17848 11.4491 6.26133L7.26653 10.3689C6.91116 10.7179 6.91116 11.2817 7.26653 11.6307L11.4491 15.7383C11.5334 15.8213 11.6335 15.8871 11.7437 15.932C11.854 15.9769 11.9721 16 12.0915 16C12.2108 16 12.329 15.9769 12.4392 15.932C12.5495 15.8871 12.6496 15.8213 12.7339 15.7383C13.0802 15.3893 13.0893 14.8165 12.7339 14.4675Z"
    fill="#878787"
  />
</svg>
