<svg width="22" height="22" viewBox="0 0 22 22" fill="none" xmlns="http://www.w3.org/2000/svg">
<path
    fill-rule="evenodd"
    clip-rule="evenodd"
    d="M22 11C22 4.92487 17.0751 0 11 0C4.92487 0 0 4.92487 0 11C0 17.0751 4.92487 22 11 22C17.0751 22 22 17.0751 22 11ZM20 11C20 6.02944 15.9706 2 11 2C6.02944 2 2 6.02944 2 11C2 15.9706 6.02944 20 11 20C15.9706 20 20 15.9706 20 11Z"
    fill="#878787"
  />
<path
    d="M9.2661 7.53246L12.8017 11.0047L9.2661 14.4769C9.18173 14.5597 9.11481 14.6581 9.06916 14.7663C9.0235 14.8746 9 14.9906 9 15.1078C9 15.2249 9.0235 15.341 9.06916 15.4492C9.11481 15.5575 9.18173 15.6558 9.2661 15.7387C9.35046 15.8215 9.45061 15.8872 9.56084 15.9321C9.67107 15.9769 9.78921 16 9.90851 16C10.0278 16 10.146 15.9769 10.2562 15.9321C10.3664 15.8872 10.4666 15.8215 10.5509 15.7387L14.7335 11.6311C15.0888 11.2821 15.0888 10.7183 14.7335 10.3693L10.5509 6.26171C10.4666 6.17875 10.3665 6.11293 10.2563 6.06802C10.146 6.02312 10.0279 6 9.90851 6C9.78917 6 9.671 6.02312 9.56077 6.06802C9.45053 6.11293 9.3504 6.17875 9.2661 6.26171C8.91983 6.61072 8.91072 7.18345 9.2661 7.53246Z"
    fill="#878787"
  />
</svg>
