<svg width="20" height="20" viewBox="0 0 20 20" fill="none" xmlns="http://www.w3.org/2000/svg">
<path
    d="M14.5565 15.5481L8.6639 9.99254L14.5565 4.43701C14.6971 4.30445 14.8086 4.14708 14.8847 3.97388C14.9608 3.80068 15 3.61504 15 3.42757C15 3.2401 14.9608 3.05446 14.8847 2.88126C14.8086 2.70806 14.6971 2.55069 14.5565 2.41813C14.4159 2.28556 14.249 2.18041 14.0653 2.10867C13.8816 2.03693 13.6847 2 13.4858 2C13.287 2 13.0901 2.03693 12.9064 2.10867C12.7226 2.18041 12.5557 2.28556 12.4151 2.41813L5.44422 8.99025C4.85193 9.54867 4.85193 10.4507 5.44422 11.0091L12.4151 17.5813C12.5556 17.714 12.7225 17.8193 12.9062 17.8912C13.09 17.963 13.2869 18 13.4858 18C13.6847 18 13.8817 17.963 14.0654 17.8912C14.2491 17.8193 14.416 17.714 14.5565 17.5813C15.1336 17.0229 15.1488 16.1065 14.5565 15.5481Z"
    fill="#878787"
  />
</svg>
