<svg width="22" height="22" viewBox="0 0 22 22" fill="none" xmlns="http://www.w3.org/2000/svg">
<path
    fill-rule="evenodd"
    clip-rule="evenodd"
    d="M11 22C17.0751 22 22 17.0751 22 11C22 4.92487 17.0751 0 11 0C4.92487 0 0 4.92487 0 11C0 17.0751 4.92487 22 11 22ZM11 20C15.9706 20 20 15.9706 20 11C20 6.02944 15.9706 2 11 2C6.02944 2 2 6.02944 2 11C2 15.9706 6.02944 20 11 20Z"
    fill="#878787"
  />
<path
    d="M14.4675 9.2661L10.9953 12.8017L7.52313 9.2661C7.44028 9.18173 7.34192 9.11481 7.23367 9.06916C7.12542 9.0235 7.0094 9 6.89223 9C6.77506 9 6.65904 9.0235 6.55079 9.06916C6.44254 9.11481 6.34418 9.18173 6.26133 9.2661C6.17848 9.35046 6.11276 9.45061 6.06792 9.56084C6.02308 9.67107 6 9.78921 6 9.90851C6 10.0278 6.02308 10.146 6.06792 10.2562C6.11276 10.3664 6.17848 10.4666 6.26133 10.5509L10.3689 14.7335C10.7179 15.0888 11.2817 15.0888 11.6307 14.7335L15.7383 10.5509C15.8213 10.4666 15.8871 10.3665 15.932 10.2563C15.9769 10.146 16 10.0279 16 9.90851C16 9.78917 15.9769 9.671 15.932 9.56077C15.8871 9.45053 15.8213 9.3504 15.7383 9.2661C15.3893 8.91983 14.8165 8.91072 14.4675 9.2661Z"
    fill="#878787"
  />
</svg>
