<svg width="22" height="22" viewBox="0 0 22 22" fill="none" xmlns="http://www.w3.org/2000/svg">
<path
    fill-rule="evenodd"
    clip-rule="evenodd"
    d="M11 0C4.92487 0 0 4.92487 0 11C0 17.0751 4.92487 22 11 22C17.0751 22 22 17.0751 22 11C22 4.92487 17.0751 0 11 0ZM11 2C6.02944 2 2 6.02944 2 11C2 15.9706 6.02944 20 11 20C15.9706 20 20 15.9706 20 11C20 6.02944 15.9706 2 11 2Z"
    fill="#878787"
  />
<path
    d="M7.53246 12.7339L11.0047 9.19834L14.4769 12.7339C14.5597 12.8183 14.6581 12.8852 14.7663 12.9308C14.8746 12.9765 14.9906 13 15.1078 13C15.2249 13 15.341 12.9765 15.4492 12.9308C15.5575 12.8852 15.6558 12.8183 15.7387 12.7339C15.8215 12.6495 15.8872 12.5494 15.9321 12.4392C15.9769 12.3289 16 12.2108 16 12.0915C16 11.9722 15.9769 11.854 15.9321 11.7438C15.8872 11.6336 15.8215 11.5334 15.7387 11.4491L11.6311 7.26653C11.2821 6.91116 10.7183 6.91116 10.3693 7.26653L6.26171 11.4491C6.17875 11.5334 6.11293 11.6335 6.06802 11.7437C6.02312 11.854 6 11.9721 6 12.0915C6 12.2108 6.02312 12.329 6.06802 12.4392C6.11293 12.5495 6.17875 12.6496 6.26171 12.7339C6.61072 13.0802 7.18345 13.0893 7.53246 12.7339Z"
    fill="#878787"
  />
</svg>
