<svg width="10" height="6" viewBox="0 0 10 6" fill="none" xmlns="http://www.w3.org/2000/svg">
<path
    d="M8.46754 0.266098L4.99534 3.80166L1.52313 0.266098C1.44028 0.181734 1.34192 0.114814 1.23367 0.0691571C1.12542 0.0235 1.0094 8.88913e-10 0.892231 0C0.775062 -8.88908e-10 0.65904 0.0235 0.550789 0.0691571C0.442539 0.114814 0.34418 0.181734 0.261329 0.266098C0.178477 0.350461 0.112756 0.450615 0.0679172 0.56084C0.0230784 0.671066 -8.72979e-10 0.789206 0 0.908513C8.72982e-10 1.02782 0.0230784 1.14596 0.0679172 1.25619C0.112756 1.36641 0.178477 1.46657 0.261329 1.55093L4.36891 5.73347C4.71792 6.08884 5.2817 6.08884 5.63071 5.73347L9.73829 1.55093C9.82125 1.46663 9.88707 1.36649 9.93198 1.25626C9.97688 1.14603 10 1.02786 10 0.908513C10 0.789171 9.97688 0.671001 9.93198 0.560767C9.88707 0.450532 9.82125 0.350399 9.73829 0.266098C9.38928 -0.0801691 8.81655 -0.0892814 8.46754 0.266098Z"
    fill="#878787"
  />
</svg>
