<svg width="44" height="44" viewBox="0 0 44 44" fill="none" xmlns="http://www.w3.org/2000/svg">
<path
    d="M43.5 22C43.5 33.8741 33.8741 43.5 22 43.5C10.1259 43.5 0.5 33.8741 0.5 22C0.5 10.1259 10.1259 0.5 22 0.5C33.8741 0.5 43.5 10.1259 43.5 22Z"
    fill="white"
    stroke="#E5E5E5"
  />
<path
    d="M28 25C28 24.4477 28.4477 24 29 24H31C31.5523 24 32 24.4477 32 25V33C32 33.5523 31.5523 34 31 34H29C28.4477 34 28 33.5523 28 33V25Z"
    fill="#878787"
  />
<path
    d="M20 11C20 10.4477 20.4477 10 21 10H23C23.5523 10 24 10.4477 24 11V33C24 33.5523 23.5523 34 23 34H21C20.4477 34 20 33.5523 20 33V11Z"
    fill="#878787"
  />
<path
    d="M12 19C12 18.4477 12.4477 18 13 18H15C15.5523 18 16 18.4477 16 19V33C16 33.5523 15.5523 34 15 34H13C12.4477 34 12 33.5523 12 33V19Z"
    fill="#878787"
  />
</svg>
