<svg width="22" height="22" viewBox="0 0 22 22" fill="none" xmlns="http://www.w3.org/2000/svg">
<path
    fill-rule="evenodd"
    clip-rule="evenodd"
    d="M11 22C17.0751 22 22 17.0751 22 11C22 4.92487 17.0751 0 11 0C4.92487 0 0 4.92487 0 11C0 17.0751 4.92487 22 11 22ZM11 20C15.9706 20 20 15.9706 20 11C20 6.02944 15.9706 2 11 2C6.02944 2 2 6.02944 2 11C2 15.9706 6.02944 20 11 20Z"
    fill="#878787"
  />
<path
    d="M16 6.23781C16 6.10702 15.8962 6 15.7693 6L13.8662 6.00892L11 9.53151L8.13668 6.01189L6.23068 6.00297C6.10381 6.00297 6 6.10702 6 6.24078C6 6.29727 6.02018 6.35077 6.05479 6.39536L9.80623 11.003L6.05479 15.6076C6.01994 15.6512 6.00061 15.7057 6 15.7622C6 15.893 6.10381 16 6.23068 16L8.13668 15.9911L11 12.4685L13.8633 15.9881L15.7664 15.997C15.8933 15.997 15.9971 15.893 15.9971 15.7592C15.9971 15.7027 15.9769 15.6492 15.9423 15.6046L12.1967 11L15.9481 6.39239C15.9827 6.35077 16 6.29429 16 6.23781Z"
    fill="#878787"
  />
</svg>
