<svg width="178" height="43" viewBox="0 0 178 43" fill="none" xmlns="http://www.w3.org/2000/svg">
<g clip-path="url(#clip0)">
<path
      d="M61.9441 20.7256V28.48H86.1521V25.5192H64.9345V21.9945L69.7761 17.2008H86.1521V14.24H68.4945L61.9441 20.7256Z"
      fill="black"
    />
<path
      d="M89.4985 20.7256V28.4095H115.202V14.24H96.0489L89.4985 20.7256ZM112.283 17.2008V25.5897H92.4177V21.9945L97.2593 17.2008H112.283Z"
      fill="black"
    />
<path
      d="M118.406 20.7256V28.2685H121.396V22.8404H142.614V19.8796H123.461L126.238 17.2008H142.614V14.24H124.956L118.406 20.7256Z"
      fill="black"
    />
<path d="M148.879 14.4515H145.96V28.2685H148.879V14.4515Z" fill="black" />
<path
      d="M153.009 14.381L151.727 17.0598L160.485 21.36L151.727 25.6602L153.009 28.339L164.401 22.6994L163.76 21.36L164.401 20.0206L153.009 14.381Z"
      fill="black"
    />
<path
      d="M178 17.0598L176.719 14.381L165.327 20.0206L165.967 21.36L165.327 22.6994L176.719 28.339L178 25.6602L169.243 21.36L178 17.0598Z"
      fill="black"
    />
<path d="M0 0.284796L16.1624 21.0752L13.8128 14.1688L0 0.284796Z" fill="black" />
<path d="M14.1688 13.8128L21.0752 16.1624L0.284801 0L14.1688 13.8128Z" fill="black" />
<path d="M21.2888 16.6608L14.3824 14.3824L16.6608 21.2888L21.2888 16.6608Z" fill="black" />
<path d="M0.284801 42.72L21.0752 26.5576L14.1688 28.9072L0.284801 42.72Z" fill="black" />
<path d="M13.8128 28.5512L16.1624 21.6448L0 42.4352L13.8128 28.5512Z" fill="black" />
<path d="M16.6608 21.4312L14.3824 28.3376L21.2888 26.0592L16.6608 21.4312Z" fill="black" />
<path d="M28.5512 13.8128L21.6448 16.1624L42.4352 0L28.5512 13.8128Z" fill="black" />
<path d="M28.9072 14.1688L26.5576 21.0752L42.72 0.284796L28.9072 14.1688Z" fill="black" />
<path d="M26.0592 21.2888L28.3376 14.3824L21.4312 16.6608L26.0592 21.2888Z" fill="black" />
<path d="M42.72 42.4352L26.5576 21.6448L28.9072 28.5512L42.72 42.4352Z" fill="black" />
<path d="M28.5512 28.9072L21.6448 26.5576L42.4352 42.72L28.5512 28.9072Z" fill="black" />
<path d="M21.4312 26.0592L28.3376 28.3376L26.0592 21.4312L21.4312 26.0592Z" fill="black" />
</g>
<defs>
<clipPath id="clip0">
<rect width="178" height="42.72" fill="white" />
</clipPath>
</defs>
</svg>
