<svg width="22" height="22" viewBox="0 0 22 22" fill="none" xmlns="http://www.w3.org/2000/svg">
<path d="M0 0.146664L8.32333 10.8533L7.11333 7.29667L0 0.146664Z" fill="black" />
<path d="M7.29667 7.11333L10.8533 8.32333L0.146667 0L7.29667 7.11333Z" fill="black" />
<path d="M10.9633 8.58L7.40667 7.40667L8.58 10.9633L10.9633 8.58Z" fill="black" />
<path d="M0.146667 22L10.8533 13.6767L7.29667 14.8867L0.146667 22Z" fill="black" />
<path d="M7.11333 14.7033L8.32333 11.1467L0 21.8533L7.11333 14.7033Z" fill="black" />
<path d="M8.58 11.0367L7.40667 14.5933L10.9633 13.42L8.58 11.0367Z" fill="black" />
<path d="M14.7033 7.11333L11.1467 8.32333L21.8533 0L14.7033 7.11333Z" fill="black" />
<path d="M14.8867 7.29667L13.6767 10.8533L22 0.146664L14.8867 7.29667Z" fill="black" />
<path d="M13.42 10.9633L14.5933 7.40667L11.0367 8.58L13.42 10.9633Z" fill="black" />
<path d="M22 21.8533L13.6767 11.1467L14.8867 14.7033L22 21.8533Z" fill="black" />
<path d="M14.7033 14.8867L11.1467 13.6767L21.8533 22L14.7033 14.8867Z" fill="black" />
<path d="M11.0367 13.42L14.5933 14.5933L13.42 11.0367L11.0367 13.42Z" fill="black" />
</svg>
