<svg width="43" height="43" viewBox="0 0 43 43" fill="none" xmlns="http://www.w3.org/2000/svg">
<path d="M0 0.284796L16.1624 21.0752L13.8128 14.1688L0 0.284796Z" fill="black" />
<path d="M14.1688 13.8128L21.0752 16.1624L0.284801 0L14.1688 13.8128Z" fill="black" />
<path d="M21.2888 16.6608L14.3824 14.3824L16.6608 21.2888L21.2888 16.6608Z" fill="black" />
<path d="M0.284801 42.72L21.0752 26.5576L14.1688 28.9072L0.284801 42.72Z" fill="black" />
<path d="M13.8128 28.5512L16.1624 21.6448L0 42.4352L13.8128 28.5512Z" fill="black" />
<path d="M16.6608 21.4312L14.3824 28.3376L21.2888 26.0592L16.6608 21.4312Z" fill="black" />
<path d="M28.5512 13.8128L21.6448 16.1624L42.4352 0L28.5512 13.8128Z" fill="black" />
<path d="M28.9072 14.1688L26.5576 21.0752L42.72 0.284796L28.9072 14.1688Z" fill="black" />
<path d="M26.0592 21.2888L28.3376 14.3824L21.4312 16.6608L26.0592 21.2888Z" fill="black" />
<path d="M42.72 42.4352L26.5576 21.6448L28.9072 28.5512L42.72 42.4352Z" fill="black" />
<path d="M28.5512 28.9072L21.6448 26.5576L42.4352 42.72L28.5512 28.9072Z" fill="black" />
<path d="M21.4312 26.0592L28.3376 28.3376L26.0592 21.4312L21.4312 26.0592Z" fill="black" />
</svg>
