<svg width="44" height="44" viewBox="0 0 44 44" fill="none" xmlns="http://www.w3.org/2000/svg">
<path
    d="M43.5 22C43.5 33.8741 33.8741 43.5 22 43.5C10.1259 43.5 0.5 33.8741 0.5 22C0.5 10.1259 10.1259 0.5 22 0.5C33.8741 0.5 43.5 10.1259 43.5 22Z"
    fill="white"
    stroke="#E5E5E5"
  />
<path
    d="M32.0535 16.3946L30.5751 18.5967C31.288 20.0049 31.6371 21.5663 31.5909 23.141C31.5448 24.7157 31.1049 26.2544 30.3106 27.6193H13.6515C12.6192 25.8459 12.1915 23.7902 12.4317 21.7571C12.6719 19.7239 13.5672 17.8216 14.985 16.332C16.4028 14.8424 18.2676 13.845 20.3028 13.4875C22.3381 13.1299 24.4355 13.4314 26.2841 14.3472L28.5077 12.8831C26.2438 11.4455 23.5584 10.8013 20.8811 11.0535C18.2038 11.3058 15.6893 12.44 13.7398 14.2746C11.7903 16.1093 10.5184 18.5384 10.1276 21.1735C9.73679 23.8086 10.2496 26.4973 11.5841 28.8097C11.7939 29.1695 12.0951 29.4686 12.4577 29.6775C12.8204 29.8863 13.232 29.9975 13.6515 30H30.2986C30.7222 30.0016 31.1387 29.8924 31.506 29.6834C31.8733 29.4744 32.1782 29.173 32.39 28.8097C33.4975 26.9098 34.0532 24.7438 33.996 22.5509C33.9387 20.3579 33.2706 18.2233 32.0655 16.3827L32.0535 16.3946Z"
    fill="#878787"
  />
<path
    d="M20.2863 24.5364C20.5096 24.7577 20.7747 24.9333 21.0665 25.0531C21.3583 25.1729 21.6712 25.2346 21.9871 25.2346C22.303 25.2346 22.6158 25.1729 22.9076 25.0531C23.1995 24.9333 23.4646 24.7577 23.6878 24.5364L30.4909 14.4306L20.2863 21.1678C20.0628 21.3889 19.8855 21.6514 19.7645 21.9404C19.6435 22.2295 19.5813 22.5392 19.5813 22.8521C19.5813 23.1649 19.6435 23.4747 19.7645 23.7637C19.8855 24.0527 20.0628 24.3153 20.2863 24.5364Z"
    fill="#878787"
  />
</svg>
