<svg width="44" height="44" viewBox="0 0 44 44" fill="none" xmlns="http://www.w3.org/2000/svg">
<path
    d="M22 0C9.85089 0 0 9.85089 0 22C0 34.1491 9.85089 44 22 44C34.1491 44 44 34.1491 44 22C44 9.85089 34.1491 0 22 0Z"
    fill="#E1E5D1"
  />
<path
    fill-rule="evenodd"
    clip-rule="evenodd"
    d="M22.8064 32.2915L22.8162 33.8482C22.8162 34.0643 22.6394 34.246 22.4233 34.246H21.0287C20.8126 34.246 20.6358 34.0692 20.6358 33.8531V32.3112C16.2751 31.9871 14.2224 29.5022 14.0015 26.8013C13.9818 26.5705 14.1635 26.3741 14.3943 26.3741H16.6631C16.8546 26.3741 17.0215 26.5116 17.051 26.6982C17.3015 28.2549 18.5144 29.4187 20.6898 29.7085V22.7009L19.4769 22.3915C16.9086 21.7777 14.4631 20.1768 14.4631 16.8571C14.4631 13.2772 17.1836 11.3522 20.6604 11.0134V9.39286C20.6604 9.17679 20.8372 9 21.0532 9H22.4332C22.6492 9 22.826 9.17679 22.826 9.39286V10.9987C26.1898 11.3375 28.714 13.3018 29.0086 16.3612C29.0331 16.592 28.8515 16.7933 28.6157 16.7933H26.4108C26.2144 16.7933 26.0474 16.646 26.0229 16.4545C25.8265 15.0205 24.6773 13.8518 22.8064 13.5964V20.1915L24.0537 20.4813C27.2358 21.267 29.4015 22.7893 29.4015 26.1973C29.4015 29.8951 26.6515 31.9576 22.8064 32.2915ZM17.5175 16.6312C17.5175 17.8785 18.2885 18.846 19.9483 19.4451C20.1791 19.5384 20.4099 19.612 20.6849 19.6906V13.6013C18.8729 13.8321 17.5175 14.8486 17.5175 16.6312ZM23.2385 23.2705C23.101 23.241 22.9635 23.2067 22.8064 23.1625V29.7281C24.8983 29.5415 26.3421 28.3924 26.3421 26.4674C26.3421 24.9598 25.5613 23.9777 23.2385 23.2705Z"
    fill="#878787"
  />
</svg>
