<svg width="152" height="88" viewBox="0 0 152 88" fill="none" xmlns="http://www.w3.org/2000/svg">
<ellipse cx="76" cy="76" rx="76" ry="12" fill="#EAEAEA" />
<path
    d="M34.2518 12.4561V1.31122C34.2523 1.18563 34.2772 1.06136 34.3251 0.945502C34.3731 0.829644 34.4431 0.724469 34.5313 0.635984C34.6195 0.547499 34.724 0.477437 34.8389 0.429799C34.9539 0.382161 35.077 0.357881 35.2012 0.358344C35.3255 0.357869 35.4486 0.382139 35.5635 0.429766C35.6785 0.477393 35.783 0.547446 35.8712 0.635923C35.9594 0.7244 36.0294 0.829569 36.0774 0.945422C36.1254 1.06128 36.1503 1.18555 36.1507 1.31113V12.456C36.1634 12.5913 36.1485 12.7277 36.1069 12.8569C36.0653 12.9861 35.9979 13.1053 35.9089 13.2071C35.8199 13.3089 35.7112 13.3912 35.5894 13.4487C35.4677 13.5063 35.3356 13.5381 35.2012 13.5419C34.6505 13.6376 34.2518 13.0843 34.2518 12.4565V12.4561Z"
    fill="#DCDCDC"
  />
<path
    d="M29.5998 5.94061H40.2143C40.3546 5.95891 40.49 6.00502 40.6127 6.07628C40.7354 6.14755 40.843 6.24258 40.9293 6.35593C41.0156 6.46928 41.0789 6.59873 41.1157 6.73686C41.1524 6.875 41.1619 7.0191 41.1435 7.16093C41.1113 7.39793 41.0029 7.61766 40.835 7.78622C40.6671 7.95479 40.449 8.06283 40.2143 8.09369H29.5998C29.4608 8.09695 29.3226 8.07149 29.1937 8.01887C29.0648 7.96625 28.9478 7.88757 28.85 7.78766C28.7522 7.68775 28.6757 7.56871 28.625 7.43783C28.5743 7.30695 28.5506 7.16699 28.5553 7.02652C28.5553 6.44163 29.0172 5.96115 29.5999 5.94113L29.5998 5.94061ZM123.722 53.7399L116.241 45.9291C116.135 45.8313 116.05 45.7122 115.992 45.5794C115.933 45.4465 115.903 45.3028 115.903 45.1575C115.903 45.0123 115.933 44.8686 115.992 44.7357C116.05 44.6029 116.135 44.4838 116.241 44.386C116.332 44.2777 116.446 44.1907 116.574 44.1311C116.702 44.0715 116.841 44.0406 116.982 44.0406C117.122 44.0406 117.261 44.0715 117.389 44.1311C117.517 44.1907 117.631 44.2777 117.722 44.386L125.317 52.1782C125.421 52.279 125.504 52.4002 125.561 52.5344C125.618 52.6686 125.647 52.813 125.647 52.959C125.647 53.1049 125.618 53.2494 125.561 53.3836C125.504 53.5178 125.421 53.639 125.317 53.7398C125.212 53.8459 125.088 53.9301 124.951 53.9875C124.814 54.0449 124.668 54.0745 124.52 54.0745C124.371 54.0745 124.225 54.0449 124.088 53.9875C123.951 53.9301 123.827 53.8459 123.722 53.7398V53.7399Z"
    fill="#DCDCDC"
  />
<path
    d="M123.931 44.386C124.026 44.277 124.143 44.1896 124.274 44.1298C124.405 44.0699 124.547 44.039 124.69 44.039C124.834 44.039 124.976 44.0699 125.107 44.1298C125.238 44.1896 125.355 44.277 125.45 44.386C125.556 44.4837 125.641 44.6028 125.699 44.7357C125.757 44.8685 125.787 45.0122 125.787 45.1575C125.787 45.3027 125.757 45.4464 125.699 45.5793C125.641 45.7121 125.556 45.8312 125.45 45.9289L117.855 53.6636C117.76 53.7727 117.643 53.8601 117.512 53.92C117.381 53.9799 117.239 54.0109 117.095 54.0109C116.951 54.0109 116.809 53.9799 116.678 53.92C116.547 53.8601 116.431 53.7727 116.336 53.6636C116.229 53.5765 116.142 53.4663 116.083 53.3411C116.023 53.2158 115.993 53.0787 115.993 52.9399C115.993 52.801 116.023 52.6639 116.083 52.5387C116.142 52.4134 116.229 52.3032 116.336 52.2162L123.931 44.386ZM16.65 47.4718C13.7761 47.4718 11.4473 45.1352 11.4473 42.2523C11.4473 39.3693 13.7761 37.0322 16.65 37.0322C19.5227 37.0497 21.8383 39.4005 21.8209 42.2828C21.8041 45.1423 19.4989 47.4548 16.65 47.4718ZM16.65 39.0327C14.8776 39.0221 13.432 40.4547 13.4216 42.233C13.4111 44.0111 14.8394 45.4613 16.6118 45.4713C18.3841 45.4825 19.8292 44.0492 19.8397 42.271V42.2523C19.8397 40.4817 18.4143 39.0432 16.65 39.0327ZM131.773 19.848C130.042 19.8587 128.631 18.4594 128.62 16.7235C128.61 14.9876 130.004 13.5719 131.734 13.5613C133.464 13.5508 134.876 14.9494 134.886 16.6853L134.886 16.7048C134.907 18.4196 133.539 19.827 131.83 19.8481H131.772L131.773 19.848ZM131.773 15.0849C131.562 15.0816 131.352 15.1203 131.155 15.199C130.959 15.2776 130.78 15.3946 130.628 15.5432C130.477 15.6918 130.355 15.8692 130.272 16.0651C130.188 16.2611 130.143 16.4719 130.14 16.6853C130.138 16.8988 130.178 17.1105 130.257 17.3084C130.336 17.5063 130.453 17.6865 130.601 17.8386C130.749 17.9908 130.926 18.112 131.12 18.1952C131.315 18.2785 131.523 18.3222 131.734 18.3239C131.947 18.3272 132.158 18.2879 132.356 18.2081C132.554 18.1283 132.734 18.0096 132.885 17.8591C133.037 17.7085 133.158 17.5289 133.241 17.3307C133.324 17.1326 133.367 16.9198 133.368 16.7048C133.372 16.4915 133.334 16.2795 133.255 16.0815C133.176 15.8835 133.059 15.7035 132.91 15.5524C132.761 15.4012 132.584 15.2819 132.388 15.2017C132.193 15.1215 131.983 15.082 131.772 15.0855L131.773 15.0849ZM77.4293 76.4297C77.4293 76.4297 76.4162 76.4661 75.9106 76.4297C74.2851 76.3458 73.0356 74.9554 73.1191 73.3245C73.2033 71.6936 74.5886 70.4398 76.2141 70.5243C80.3346 70.7532 82.8411 69.9142 84.9866 67.4948C87.4931 64.714 89.7147 59.5889 92.2206 52.8258C97.6323 38.1562 103.196 21.0102 105.512 14.0941L68.2205 6.49324L55.1384 43.1287C54.6271 44.6541 52.9795 45.4754 51.4591 44.9621C51.4195 44.9487 51.3802 44.9344 51.3412 44.9192C49.8201 44.3402 49.043 42.6447 49.5943 41.1095L63.5499 2.14953C63.9875 0.764991 65.4011 -0.0587197 66.816 0.24464L109.747 8.79826C111.339 9.07102 112.409 10.5875 112.137 12.1845C112.127 12.2435 112.115 12.3022 112.101 12.3604V12.6655C112.101 12.7418 104.735 35.9081 97.7089 54.8451C94.8988 62.4659 92.4492 67.8949 89.3351 71.4577C86.3289 74.8475 81.9462 76.6785 77.43 76.4297H77.4293Z"
    fill="#DCDCDC"
  />
<path
    d="M80.5441 76.3916C77.8841 76.4082 75.2528 75.8361 72.8348 74.7155L48.6066 63.7989C48.6066 63.7989 37.2145 60.2173 40.5938 45.3193L73.6705 58.6554C73.6705 58.6554 72.36 71.8766 82.7656 70.4287C83.0785 70.7812 83.3191 71.1928 83.4736 71.6399C83.6281 72.087 83.6933 72.5606 83.6656 73.0334C83.6379 73.5061 83.5177 73.9686 83.312 74.3941C83.1063 74.8195 82.8192 75.1996 82.4673 75.5122C81.9276 75.9931 81.2577 76.2996 80.5441 76.3922V76.3916ZM95.9052 29.3545C95.6469 29.3921 95.3846 29.3921 95.1263 29.3545L82.4621 25.9254C80.8894 25.5048 79.9538 23.8838 80.3729 22.3057C80.7924 20.7275 82.408 19.7888 83.9808 20.2101L96.6648 23.6585C98.234 24.0521 99.1928 25.6432 98.8103 27.2208C98.6216 27.8475 98.2358 28.3949 97.7115 28.7799C97.1873 29.1649 96.5531 29.3667 95.9052 29.3545V29.3545ZM90.7024 42.0429C90.3937 42.0294 90.0878 41.9782 89.7912 41.8903L77.1072 37.7561C75.5972 37.3132 74.7313 35.7263 75.173 34.2115C75.184 34.1733 75.1962 34.1352 75.2083 34.0983C75.6738 32.5688 77.2866 31.707 78.8111 32.1734C78.832 32.1792 78.8523 32.1863 78.8732 32.1933L91.5566 36.3083C93.0666 36.7512 93.9326 38.3381 93.4909 39.8534L93.4561 39.966C93.2679 40.5588 92.9015 41.0775 92.4079 41.4498C91.9143 41.8221 91.3181 42.0294 90.7024 42.0429ZM85.9743 53.7211C85.6592 53.7092 85.3467 53.658 85.0441 53.5686L72.36 49.435C70.85 48.9087 70.0509 47.2537 70.5755 45.7389C71.0995 44.2235 72.7489 43.4216 74.2589 43.9478L86.9429 48.0627C88.5069 48.3712 89.526 49.8931 89.219 51.4624C88.9271 52.9543 87.5349 53.9658 86.0311 53.778L85.9743 53.7211ZM74.5822 23.2391C74.3813 23.2763 74.1754 23.2763 73.9746 23.2391H73.5184C71.9457 22.9023 70.9422 21.35 71.2783 19.7718C71.6137 18.1938 73.1609 17.187 74.7336 17.5237H75.1892C76.7155 17.8071 77.7236 19.2779 77.4409 20.8091C77.4321 20.8572 77.422 20.9052 77.4107 20.9528C77.2727 21.5928 76.9266 22.1677 76.4276 22.5856C75.9286 23.0036 75.3054 23.2405 74.6576 23.2585L74.5822 23.2391ZM70.0056 35.2986C69.8047 35.3358 69.5989 35.3358 69.398 35.2986H68.9232C67.3296 34.909 66.3523 33.2974 66.74 31.6976C67.1276 30.0983 68.7347 29.1174 70.3289 29.507H70.7844C72.3276 29.8138 73.3304 31.3168 73.0245 32.8651C73.0187 32.8956 73.0129 32.9255 73.006 32.9554C72.775 34.3763 71.5144 35.3947 70.0816 35.3173L70.0062 35.2986H70.0056ZM65.4864 46.4628C65.2855 46.5001 65.0797 46.5001 64.8788 46.4628H64.4232C62.8505 46.1261 61.8471 44.5737 62.1832 42.9957C62.5186 41.4175 64.0658 40.4107 65.6385 40.7469C65.7444 40.7205 65.8552 40.7205 65.9612 40.7469H66.1133C67.6378 41.0402 68.636 42.5187 68.3435 44.0475C68.3353 44.0907 68.3262 44.1338 68.3162 44.1766C68.0225 45.5089 66.8468 46.4588 65.4865 46.4623L65.4864 46.4628Z"
    fill="#DCDCDC"
  />
</svg>
