<svg width="110" height="110" viewBox="0 0 110 110" fill="none" xmlns="http://www.w3.org/2000/svg">
<g opacity="0.08">
<path d="M0 0.733322L41.6167 54.2667L35.5667 36.4833L0 0.733322Z" fill="black" />
<path d="M36.4833 35.5667L54.2667 41.6167L0.733336 0L36.4833 35.5667Z" fill="black" />
<path d="M54.8167 42.9L37.0333 37.0333L42.9 54.8167L54.8167 42.9Z" fill="black" />
<path d="M0.733336 110L54.2667 68.3834L36.4833 74.4334L0.733336 110Z" fill="black" />
<path d="M35.5667 73.5167L41.6167 55.7333L0 109.267L35.5667 73.5167Z" fill="black" />
<path d="M42.9 55.1834L37.0333 72.9667L54.8167 67.1L42.9 55.1834Z" fill="black" />
<path d="M73.5167 35.5667L55.7333 41.6167L109.267 0L73.5167 35.5667Z" fill="black" />
<path d="M74.4333 36.4833L68.3833 54.2667L110 0.733322L74.4333 36.4833Z" fill="black" />
<path d="M67.1 54.8167L72.9667 37.0333L55.1833 42.9L67.1 54.8167Z" fill="black" />
<path d="M110 109.267L68.3833 55.7333L74.4333 73.5167L110 109.267Z" fill="black" />
<path d="M73.5167 74.4334L55.7333 68.3834L109.267 110L73.5167 74.4334Z" fill="black" />
<path d="M55.1833 67.1L72.9667 72.9667L67.1 55.1834L55.1833 67.1Z" fill="black" />
</g>
</svg>
