<svg width="88" height="80" viewBox="0 0 88 80" fill="none" xmlns="http://www.w3.org/2000/svg">
<path
    d="M52.9286 26.8753V16.2191H77.59V0H10.4462V16.2191H35.1121V26.8753C15.0759 27.7831 0 31.7004 0 36.3913C0 41.0822 15.0759 44.995 35.1121 45.9117V80H52.9468V45.9162C72.9604 44.9994 88 41.0866 88 36.3957C87.9819 31.7049 72.9422 27.7876 52.9286 26.8753ZM52.9513 43.0319C52.4485 43.0542 49.8664 43.2107 44.1087 43.2107C39.5017 43.2107 36.2763 43.0945 35.1257 43.0319V43.0542C17.436 42.2761 4.20385 39.2353 4.20385 35.5998C4.20385 31.9598 17.4134 28.9234 35.1302 28.1453V39.9911C36.299 40.0715 39.6014 40.2728 44.1903 40.2728C49.6852 40.2728 52.4485 40.0537 52.9694 39.9911V28.1096C70.6455 28.8832 83.8324 31.924 83.8324 35.564C83.7962 39.1996 70.6048 42.2359 52.9513 43.0319Z"
    fill="black"
    fill-opacity="0.08"
  />
</svg>
