<svg width="24" height="24" viewBox="0 0 24 24" fill="none" xmlns="http://www.w3.org/2000/svg">
<mask id="mask0" mask-type="alpha" maskUnits="userSpaceOnUse" x="2" y="2" width="20" height="20">
<circle cx="12" cy="12" r="10" fill="#C4C4C4" />
</mask>
<g mask="url(#mask0)">
<rect x="2" y="2" width="20" height="20" fill="#0B67B2" />
<path
      fill-rule="evenodd"
      clip-rule="evenodd"
      d="M22 6.08096V3.36218L14.7486 8.03096V2H9.25137V7.97134L2.11433 3.3757C2.07622 3.36982 2.03811 3.36381 2 3.35764V6.0191L6.0141 8.60231H2V14.4152H6.29131L2 17.1771V19.8899L9.24667 15.22V22H12.7543C13.4175 21.9014 14.0807 21.8058 14.7439 21.7213V15.1554L21.646 19.607C21.764 19.6236 21.882 19.6413 22 19.6605V17.1252L17.798 14.4201H22V8.60728H18.0752L22 6.08096Z"
      fill="#FF473E"
    />
<path
      fill-rule="evenodd"
      clip-rule="evenodd"
      d="M19.4079 14.792L22 16.4502V17.605L17.5959 14.7871H15.1856L22 19.1494V19.5563C21.5199 19.4789 21.0394 19.4228 20.5607 19.3834L15.1715 15.9374V22H14.3258V13.9034H22V14.792H19.4079ZM22 9.01091H14.3258V2H15.1715V7.14969L22 2.78049V3.93844L15.4628 8.12226H17.8731L22 5.48193V6.63675L19.6774 8.12226H22V9.01091ZM8.8285 2H9.67424V9.01091H2V8.12226H4.4166L2 6.57712V5.42337L6.21613 8.12226H8.62647L2 3.88192V3.35747C2.40929 3.42351 2.81859 3.47368 3.22788 3.51118L8.8285 7.09538V2ZM2 14.7871V13.8985H9.67424V22H8.8285V15.9966L2 20.3666V19.2058L8.8285 14.8365V14.7871H6.49804L2 17.6646V16.5098L4.69381 14.7871H2Z"
      fill="#E8E8E8"
    />
</g>
</svg>
