<svg width="24" height="24" viewBox="0 0 24 24" fill="none" xmlns="http://www.w3.org/2000/svg">
<path
    d="M12 22C17.5228 22 22 17.5228 22 12C22 6.47715 17.5228 2 12 2C6.47715 2 2 6.47715 2 12C2 17.5228 6.47715 22 12 22Z"
    fill="#ED4C5C"
  />
<path
    d="M8.66659 10.8L11.3333 12.6667L10.3333 9.6L12.9999 7.66666H9.69992L8.66659 4.66666L7.66659 7.66666H4.33325L6.99992 9.6L5.99992 12.6667L8.66659 10.8Z"
    fill="#FFE62E"
  />
<path
    d="M13.0999 13.1L12.3333 13.2667L13.0666 13.5667V14.3333L13.5666 13.7667L14.2999 14.0333L13.8666 13.4L14.3333 12.8L13.5666 12.9667L13.0999 12.3333V13.1Z"
    fill="#FFE62E"
  />
<path
    d="M14.2334 10.8333L13.6667 11.3333L14.4334 11.2667L14.7667 12L14.9001 11.2333L15.6667 11.1667L15.0001 10.7667L15.1667 10L14.6001 10.5L13.9334 10.1L14.2334 10.8333Z"
    fill="#FFE62E"
  />
<path
    d="M14.4334 8.23333L14.6667 9L14.9001 8.26667H15.6667L15.0667 7.8L15.3001 7.03333L14.6667 7.5L14.0667 7L14.3001 7.76667L13.6667 8.2L14.4334 8.23333Z"
    fill="#FFE62E"
  />
<path
    d="M13.0999 5.56667V6.33334L13.5666 5.7L14.3333 5.86667L13.8666 5.26667L14.2999 4.63334L13.5666 4.93334L13.0666 4.33334V5.1L12.3333 5.4L13.0999 5.56667Z"
    fill="#FFE62E"
  />
</svg>
