<svg width="44" height="44" viewBox="0 0 44 44" fill="none" xmlns="http://www.w3.org/2000/svg">
<path
    d="M44 22C44 26.3512 42.7097 30.6047 40.2923 34.2225C37.8749 37.8404 34.439 40.6602 30.419 42.3253C26.3991 43.9905 21.9756 44.4262 17.708 43.5773C13.4404 42.7284 9.52041 40.6331 6.44365 37.5564C3.3669 34.4796 1.2716 30.5596 0.422724 26.292C-0.426151 22.0244 0.00952239 17.6009 1.67465 13.581C3.33978 9.56099 6.15957 6.12506 9.77746 3.70767C13.3953 1.29028 17.6488 -5.18874e-08 22 0V2.2C18.0839 2.2 14.2558 3.36125 10.9997 5.5369C7.74362 7.71255 5.2058 10.8049 3.70719 14.4229C2.20857 18.0408 1.81646 22.022 2.58045 25.8628C3.34444 29.7036 5.23021 33.2316 7.99929 36.0007C10.7684 38.7698 14.2964 40.6556 18.1372 41.4195C21.978 42.1835 25.9592 41.7914 29.5771 40.2928C33.1951 38.7942 36.2874 36.2564 38.4631 33.0003C40.6387 29.7442 41.8 25.9161 41.8 22H44Z"
    fill="url(#paint0_linear)"
  />
<defs>
<linearGradient id="paint0_linear" x1="0" y1="0" x2="44.8825" y2="1.21377" gradientUnits="userSpaceOnUse">
<stop stop-color="#5AC276" />
<stop offset="0.494792" stop-color="#59C3B1" />
<stop offset="1" stop-color="#6FD8C4" />
</linearGradient>
</defs>
</svg>
