<svg width="44" height="44" viewBox="0 0 44 44" fill="none" xmlns="http://www.w3.org/2000/svg">
<path
    d="M43.5 22C43.5 33.8741 33.8741 43.5 22 43.5C10.1259 43.5 0.5 33.8741 0.5 22C0.5 10.1259 10.1259 0.5 22 0.5C33.8741 0.5 43.5 10.1259 43.5 22Z"
    fill="white"
    stroke="#E5E5E5"
  />
<path
    d="M33.7143 10.0013L23.5574 17.5166L25.4463 13.0875L33.7143 10.0013Z"
    fill="#E17726"
    stroke="#E17726"
    stroke-width="0.1487"
    stroke-linecap="round"
    stroke-linejoin="round"
  />
<path
    d="M10.2859 10.0013L20.3518 17.5868L18.5539 13.0875L10.2859 10.0013Z"
    fill="#E27625"
    stroke="#E27625"
    stroke-width="0.1487"
    stroke-linecap="round"
    stroke-linejoin="round"
  />
<path
    d="M30.056 27.4265L27.3533 31.5553L33.1396 33.1478L34.7971 27.5162L30.056 27.4265Z"
    fill="#E27625"
    stroke="#E27625"
    stroke-width="0.1487"
    stroke-linecap="round"
    stroke-linejoin="round"
  />
<path
    d="M9.21191 27.5162L10.859 33.1478L16.6349 31.5553L13.9426 27.4265L9.21191 27.5162Z"
    fill="#E27625"
    stroke="#E27625"
    stroke-width="0.1487"
    stroke-linecap="round"
    stroke-linejoin="round"
  />
<path
    d="M16.3229 20.452L14.7148 22.8765L20.4413 23.1378L20.2515 16.9745L16.3229 20.452Z"
    fill="#E27625"
    stroke="#E27625"
    stroke-width="0.1487"
    stroke-linecap="round"
    stroke-linejoin="round"
  />
<path
    d="M27.6759 20.4521L23.6875 16.9044L23.5562 23.1379L29.2827 22.8766L27.6759 20.4521Z"
    fill="#E27625"
    stroke="#E27625"
    stroke-width="0.1487"
    stroke-linecap="round"
    stroke-linejoin="round"
  />
<path
    d="M16.635 31.5553L20.1008 29.8822L17.1173 27.5578L16.635 31.5553Z"
    fill="#E27625"
    stroke="#E27625"
    stroke-width="0.1487"
    stroke-linecap="round"
    stroke-linejoin="round"
  />
<path
    d="M23.8992 29.881L27.3559 31.5541L26.884 27.5566L23.8992 29.881Z"
    fill="#E27625"
    stroke="#E27625"
    stroke-width="0.1487"
    stroke-linecap="round"
    stroke-linejoin="round"
  />
<path
    d="M27.3549 31.5553L23.8982 29.8822L24.1803 32.1273L24.1504 33.0789L27.3549 31.5553Z"
    fill="#D5BFB2"
    stroke="#D5BFB2"
    stroke-width="0.1487"
    stroke-linecap="round"
    stroke-linejoin="round"
  />
<path
    d="M16.635 31.5553L19.8499 33.0789L19.8304 32.1273L20.1021 29.8822L16.635 31.5553Z"
    fill="#D5BFB2"
    stroke="#D5BFB2"
    stroke-width="0.1487"
    stroke-linecap="round"
    stroke-linejoin="round"
  />
<path
    d="M19.9108 26.0732L17.0378 25.2321L19.0671 24.3L19.9108 26.0732Z"
    fill="#233447"
    stroke="#233447"
    stroke-width="0.1487"
    stroke-linecap="round"
    stroke-linejoin="round"
  />
<path
    d="M24.0891 26.0733L24.9328 24.2988L26.9725 25.2309L24.0891 26.0733Z"
    fill="#233447"
    stroke="#233447"
    stroke-width="0.1487"
    stroke-linecap="round"
    stroke-linejoin="round"
  />
<path
    d="M16.6348 31.5553L17.138 27.4265L13.9438 27.5162L16.6348 31.5553Z"
    fill="#CC6228"
    stroke="#CC6228"
    stroke-width="0.1487"
    stroke-linecap="round"
    stroke-linejoin="round"
  />
<path
    d="M26.8621 27.4265L27.3548 31.5553L30.0575 27.5162L26.8621 27.4265Z"
    fill="#CC6228"
    stroke="#CC6228"
    stroke-width="0.1487"
    stroke-linecap="round"
    stroke-linejoin="round"
  />
<path
    d="M29.2839 22.8765L23.5574 23.1378L24.0904 26.0745L24.9341 24.3L26.9738 25.2321L29.2839 22.8765Z"
    fill="#CC6228"
    stroke="#CC6228"
    stroke-width="0.1487"
    stroke-linecap="round"
    stroke-linejoin="round"
  />
<path
    d="M17.0379 25.2321L19.0672 24.3L19.9109 26.0745L20.4426 23.1378L14.7161 22.8765L17.0379 25.2321Z"
    fill="#CC6228"
    stroke="#CC6228"
    stroke-width="0.1487"
    stroke-linecap="round"
    stroke-linejoin="round"
  />
<path
    d="M14.7161 22.8765L17.1172 27.5552L17.0366 25.2308L14.7161 22.8765Z"
    fill="#E27525"
    stroke="#E27525"
    stroke-width="0.1487"
    stroke-linecap="round"
    stroke-linejoin="round"
  />
<path
    d="M26.9725 25.2321L26.8828 27.5565L29.2839 22.8778L26.9725 25.2321Z"
    fill="#E27525"
    stroke="#E27525"
    stroke-width="0.1487"
    stroke-linecap="round"
    stroke-linejoin="round"
  />
<path
    d="M20.4427 23.1365L19.9097 26.0732L20.5818 29.5403L20.7326 24.9708L20.4427 23.1365Z"
    fill="#E27525"
    stroke="#E27525"
    stroke-width="0.1487"
    stroke-linecap="round"
    stroke-linejoin="round"
  />
<path
    d="M23.5572 23.1365L23.2751 24.9604L23.4155 29.5403L24.0876 26.0732L23.5572 23.1365Z"
    fill="#E27525"
    stroke="#E27525"
    stroke-width="0.1487"
    stroke-linecap="round"
    stroke-linejoin="round"
  />
<path
    d="M24.0891 26.0732L23.417 29.5403L23.8993 29.8822L26.8828 27.5578L26.9725 25.2334L24.0891 26.0732Z"
    fill="#F5841F"
    stroke="#F5841F"
    stroke-width="0.1487"
    stroke-linecap="round"
    stroke-linejoin="round"
  />
<path
    d="M17.0378 25.2321L17.1184 27.5565L20.1019 29.8809L20.5842 29.539L19.9121 26.0719L17.0378 25.2321Z"
    fill="#F5841F"
    stroke="#F5841F"
    stroke-width="0.1487"
    stroke-linecap="round"
    stroke-linejoin="round"
  />
<path
    d="M24.1503 33.0789L24.1802 32.1273L23.9189 31.9076H20.0813L19.8304 32.1273L19.8499 33.0789L16.635 31.5553L17.7595 32.477L20.0397 34.05H23.9475L26.2381 32.477L27.3535 31.5553L24.1503 33.0789Z"
    fill="#C0AC9D"
    stroke="#C0AC9D"
    stroke-width="0.1487"
    stroke-linecap="round"
    stroke-linejoin="round"
  />
<path
    d="M23.8993 29.881L23.417 29.5391H20.583L20.1007 29.881L19.8303 32.1261L20.0812 31.9064H23.9188L24.1801 32.1261L23.8993 29.881Z"
    fill="#161616"
    stroke="#161616"
    stroke-width="0.1487"
    stroke-linecap="round"
    stroke-linejoin="round"
  />
<path
    d="M34.1458 18.0067L34.9999 13.8584L33.7142 10L23.8992 17.2657L27.677 20.452L33.0109 22.0055L34.1861 20.6327L33.6726 20.2622L34.4864 19.5199L33.8637 19.0389L34.6775 18.4175L34.1458 18.0067Z"
    fill="#763E1A"
    stroke="#763E1A"
    stroke-width="0.1487"
    stroke-linecap="round"
    stroke-linejoin="round"
  />
<path
    d="M9 13.8584L9.8645 18.0067L9.3107 18.4175L10.1336 19.0389L9.5135 19.5199L10.3273 20.2622L9.8138 20.6327L10.989 22.0055L16.3229 20.452L20.1007 17.2657L10.2857 10L9 13.8584Z"
    fill="#763E1A"
    stroke="#763E1A"
    stroke-width="0.1487"
    stroke-linecap="round"
    stroke-linejoin="round"
  />
<path
    d="M33.0109 22.0055L27.677 20.452L29.2851 22.8765L26.884 27.5552L30.0586 27.5149H34.801L33.0109 22.0055Z"
    fill="#F5841F"
    stroke="#F5841F"
    stroke-width="0.1487"
    stroke-linecap="round"
    stroke-linejoin="round"
  />
<path
    d="M16.3229 20.452L10.989 22.0055L9.21191 27.5162H13.9439L17.1185 27.5565L14.7174 22.8778L16.3229 20.452Z"
    fill="#F5841F"
    stroke="#F5841F"
    stroke-width="0.1487"
    stroke-linecap="round"
    stroke-linejoin="round"
  />
<path
    d="M23.5574 23.1378L23.8993 17.2657L25.4463 13.0875H18.5537L20.1007 17.2657L20.4426 23.1378L20.5739 24.9812L20.5843 29.5403H23.417L23.4274 24.9812L23.5574 23.1378Z"
    fill="#F5841F"
    stroke="#F5841F"
    stroke-width="0.1487"
    stroke-linecap="round"
    stroke-linejoin="round"
  />
</svg>
