<svg width="44" height="44" viewBox="0 0 44 44" fill="none" xmlns="http://www.w3.org/2000/svg">
<path
    d="M22 44C34.1503 44 44 34.1503 44 22C44 9.84974 34.1503 0 22 0C9.84974 0 0 9.84974 0 22C0 34.1503 9.84974 44 22 44Z"
    fill="#E5D1DF"
  />
<path
    d="M30.7878 14.2989L29.7037 13.2148C29.6244 13.1355 29.494 13.1355 29.4148 13.2148L13.2122 29.4122C13.133 29.4915 13.133 29.6219 13.2122 29.7011L14.2963 30.7852C14.3756 30.8645 14.506 30.8645 14.5852 30.7852L30.7852 14.5852C30.867 14.5085 30.867 14.3781 30.7878 14.2989ZM16.6818 20.3636C18.7119 20.3636 20.3636 18.7119 20.3636 16.6818C20.3636 14.6517 18.7119 13 16.6818 13C14.6517 13 13 14.6517 13 16.6818C13 18.7119 14.6517 20.3636 16.6818 20.3636ZM16.6818 14.8409C17.6969 14.8409 18.5227 15.6668 18.5227 16.6818C18.5227 17.6969 17.6969 18.5227 16.6818 18.5227C15.6668 18.5227 14.8409 17.6969 14.8409 16.6818C14.8409 15.6668 15.6668 14.8409 16.6818 14.8409ZM27.3182 23.6364C25.2881 23.6364 23.6364 25.2881 23.6364 27.3182C23.6364 29.3483 25.2881 31 27.3182 31C29.3483 31 31 29.3483 31 27.3182C31 25.2881 29.3483 23.6364 27.3182 23.6364ZM27.3182 29.1591C26.3031 29.1591 25.4773 28.3332 25.4773 27.3182C25.4773 26.3031 26.3031 25.4773 27.3182 25.4773C28.3332 25.4773 29.1591 26.3031 29.1591 27.3182C29.1591 28.3332 28.3332 29.1591 27.3182 29.1591Z"
    fill="#878787"
  />
</svg>
