<svg width="72" height="72" viewBox="0 0 72 72" fill="none" xmlns="http://www.w3.org/2000/svg">
<g filter="url(#filter0_d)">
<circle cx="36" cy="36" r="30" fill="white" />
</g>
<path
    d="M39.125 22.8789V50.0625C39.125 50.2343 39.2656 50.375 39.4375 50.375H41.7812C41.9531 50.375 42.0938 50.2343 42.0938 50.0625V26.4218L49.2422 32.0585C49.4453 32.2187 49.75 32.0742 49.75 31.8125V28.9804C49.75 28.789 49.6641 28.6093 49.5117 28.4882L41.1484 21.8945C40.3281 21.25 39.125 21.832 39.125 22.8789ZM29.9062 21.9375V45.5781L22.7578 39.9414C22.5547 39.7812 22.25 39.9257 22.25 40.1875V43.0195C22.25 43.2109 22.3359 43.3906 22.4883 43.5117L30.8516 50.1054C31.6719 50.75 32.875 50.1679 32.875 49.125V21.9375C32.875 21.7656 32.7344 21.625 32.5625 21.625H30.2188C30.0469 21.625 29.9062 21.7656 29.9062 21.9375Z"
    fill="#878787"
  />
<defs>
<filter
      id="filter0_d"
      x="0"
      y="0"
      width="72"
      height="72"
      filterUnits="userSpaceOnUse"
      color-interpolation-filters="sRGB"
    >
<feFlood flood-opacity="0" result="BackgroundImageFix" />
<feColorMatrix in="SourceAlpha" type="matrix" values="0 0 0 0 0 0 0 0 0 0 0 0 0 0 0 0 0 0 127 0" />
<feOffset />
<feGaussianBlur stdDeviation="3" />
<feColorMatrix type="matrix" values="0 0 0 0 0.898039 0 0 0 0 0.898039 0 0 0 0 0.898039 0 0 0 1 0" />
<feBlend mode="normal" in2="BackgroundImageFix" result="effect1_dropShadow" />
<feBlend mode="normal" in="SourceGraphic" in2="effect1_dropShadow" result="shape" />
</filter>
</defs>
</svg>
