<svg width="28" height="30" viewBox="0 0 28 30" fill="none" xmlns="http://www.w3.org/2000/svg">
<path d="M17.1249 1.87886V29.0625C17.1249 29.2343 17.2656 29.375 17.4374 29.375H19.7812C19.9531 29.375 20.0937 29.2343 20.0937 29.0625V5.42183L27.2421 11.0585C27.4453 11.2187 27.7499 11.0742 27.7499 10.8125V7.98042C27.7499 7.78902 27.664 7.60933 27.5117 7.48824L19.1484 0.894487C18.3281 0.249956 17.1249 0.831985 17.1249 1.87886ZM7.90619 0.937454L7.90619 24.5781L0.757751 18.9414C0.554626 18.7812 0.249938 18.9257 0.249938 19.1875L0.249938 22.0195C0.249938 22.2109 0.335876 22.3906 0.488219 22.5117L8.8515 29.1054C9.67181 29.75 10.8749 29.1679 10.8749 28.125L10.8749 0.937454C10.8749 0.765579 10.7343 0.624954 10.5624 0.624954H8.21869C8.04681 0.624954 7.90619 0.765579 7.90619 0.937454Z" fill="#878787"/>
</svg>
