<svg width="24" height="24" viewBox="0 0 24 24" fill="none" xmlns="http://www.w3.org/2000/svg">
<path
    d="M19.8727 13.875L3.56254 13.875C3.45942 13.875 3.37504 13.9593 3.37504 14.0625L3.37504 15.4687C3.37504 15.5718 3.45942 15.6562 3.56254 15.6562L17.7469 15.6562L14.3649 19.9453C14.2688 20.0671 14.3555 20.25 14.5125 20.25L16.2118 20.25C16.3266 20.25 16.4344 20.1984 16.5071 20.107L20.4633 15.089C20.85 14.5968 20.5008 13.875 19.8727 13.875ZM20.4375 8.3437L6.25317 8.3437L9.6352 4.05464C9.73129 3.93277 9.64457 3.74995 9.48754 3.74995L7.78832 3.74995C7.67348 3.74995 7.56567 3.80152 7.49301 3.89292L3.53676 8.91089C3.15004 9.40308 3.49926 10.125 4.12504 10.125L20.4375 10.125C20.5407 10.125 20.625 10.0406 20.625 9.93745L20.625 8.5312C20.625 8.42808 20.5407 8.3437 20.4375 8.3437Z"
    fill="#878787"
  />
</svg>
