<svg width="44" height="44" viewBox="0 0 44 44" fill="none" xmlns="http://www.w3.org/2000/svg">
<path
    d="M43.5 22C43.5 33.8741 33.8741 43.5 22 43.5C10.1259 43.5 0.5 33.8741 0.5 22C0.5 10.1259 10.1259 0.5 22 0.5C33.8741 0.5 43.5 10.1259 43.5 22Z"
    fill="white"
    stroke="#E5E5E5"
  />
<path d="M10 10.16L19.08 21.84L17.76 17.96L10 10.16Z" fill="black" />
<path d="M17.96 17.76L21.84 19.08L10.16 10L17.96 17.76Z" fill="black" />
<path d="M21.96 19.36L18.08 18.08L19.36 21.96L21.96 19.36Z" fill="black" />
<path d="M10.16 34L21.84 24.92L17.96 26.24L10.16 34Z" fill="black" />
<path d="M17.76 26.04L19.08 22.16L10 33.84L17.76 26.04Z" fill="black" />
<path d="M19.36 22.04L18.08 25.92L21.96 24.64L19.36 22.04Z" fill="black" />
<path d="M26.04 17.76L22.16 19.08L33.84 10L26.04 17.76Z" fill="black" />
<path d="M26.24 17.96L24.92 21.84L34 10.16L26.24 17.96Z" fill="black" />
<path d="M24.64 21.96L25.92 18.08L22.04 19.36L24.64 21.96Z" fill="black" />
<path d="M34 33.84L24.92 22.16L26.24 26.04L34 33.84Z" fill="black" />
<path d="M26.04 26.24L22.16 24.92L33.84 34L26.04 26.24Z" fill="black" />
<path d="M22.04 24.64L25.92 25.92L24.64 22.04L22.04 24.64Z" fill="black" />
</svg>
