<svg width="44" height="44" viewBox="0 0 44 44" fill="none" xmlns="http://www.w3.org/2000/svg">
<path
    d="M22 0C34.1509 0 44 9.84912 44 22C44 34.1509 34.1509 44 22 44C9.84912 44 0 34.1509 0 22C0 9.84912 9.84912 0 22 0ZM21.7649 11H12.7559V18.1418H9.625V20.7006H12.7559V23.386H9.625V25.9435H12.7559V33H21.7649C27.1824 33 31.3046 30.1194 32.89 25.9449H35.75V23.3874H33.517C33.572 22.9336 33.5995 22.4689 33.5995 21.9986V21.9354C33.5995 21.5174 33.5775 21.1049 33.5349 20.7006H35.75V18.1431H32.9436C31.3981 13.9067 27.2443 11 21.7649 11ZM30.1304 25.9449C28.7458 28.798 25.7703 30.7051 21.7649 30.7051H15.2749V25.9449H30.1304ZM30.9059 20.7006C30.9636 21.1228 30.9939 21.5559 30.9939 21.9986V22.0605C30.9939 22.5129 30.9623 22.9542 30.9018 23.386H15.2735V20.7006H30.9073H30.9059ZM21.7663 13.2908C25.7895 13.2908 28.7746 15.2488 30.151 18.1418H15.2735V13.2908H21.7635H21.7663Z"
    fill="#F4C253"
  />
</svg>
