<svg width="44" height="44" viewBox="0 0 44 44" fill="none" xmlns="http://www.w3.org/2000/svg">
<path
    d="M22 44C34.1503 44 44 34.1503 44 22C44 9.84974 34.1503 0 22 0C9.84974 0 0 9.84974 0 22C0 34.1503 9.84974 44 22 44Z"
    fill="#BFDAFA"
  />
<path d="M22 8V18.3833L31 22.2333L22 8Z" fill="#2B3439" />
<path d="M22 8L13 22.2333L22 18.3833V8Z" fill="#677889" />
<path d="M22 18.3496L13 22.1996L22 27.3329V18.3496Z" fill="#2B3439" />
<path d="M22 18.3496V27.3329L31 22.1996L22 18.3496Z" fill="#060506" />
<path d="M22 36V29L13 23.8667L22 36Z" fill="#677889" />
<path d="M22 29V36L31 23.8667L22 29Z" fill="#2B3439" />
</svg>
