<svg width="44" height="44" viewBox="0 0 44 44" fill="none" xmlns="http://www.w3.org/2000/svg">
<path
    d="M22 44C34.1503 44 44 34.1503 44 22C44 9.84974 34.1503 0 22 0C9.84974 0 0 9.84974 0 22C0 34.1503 9.84974 44 22 44Z"
    fill="black"
  />
<path
    d="M33 18.425C33 19.1125 32.8625 19.9376 32.725 20.9001L30.525 32.0375C30.525 32.3126 30.25 32.4501 30.1125 32.4501H27.3625C27.0875 32.4501 26.8125 32.1751 26.95 31.9001L29.15 20.9001C29.2875 20.2126 29.2875 19.6626 29.2875 19.2501C29.2875 16.5001 27.775 14.9876 24.475 14.9876C20.4875 14.9876 17.7375 17.1876 16.9125 21.5876L14.85 32.1751C14.85 32.4501 14.575 32.5876 14.4375 32.5876H11.6875C11.4125 32.5876 11.1375 32.3126 11.275 32.0375L15.125 12.3751C15.125 12.1001 15.4 11.9625 15.5375 11.9625H18.15C18.425 11.9625 18.7 12.2376 18.5625 12.5126L18.425 13.3376C18.2875 13.7501 18.8375 14.0251 19.1125 13.7501C20.9 12.3751 23.1 11.8251 25.575 11.8251C30.25 11.5501 33 14.025 33 18.425Z"
    fill="white"
  />
</svg>
