<svg width="44" height="44" viewBox="0 0 44 44" fill="none" xmlns="http://www.w3.org/2000/svg">
<path
    d="M22 44C34.1503 44 44 34.1503 44 22C44 9.84974 34.1503 0 22 0C9.84974 0 0 9.84974 0 22C0 34.1503 9.84974 44 22 44Z"
    fill="#C0E79B"
  />
<path
    d="M24.4351 18.3907V15.4603H31.1609V11H12.849V15.4603H19.576V18.3907C14.1116 18.6404 10 19.7176 10 21.0076C10 22.2976 14.1116 23.3736 19.576 23.6257V33H24.44V23.6269C29.8983 23.3748 34 22.2988 34 21.0088C33.9951 19.7188 29.8933 18.6416 24.4351 18.3907ZM24.4413 22.8338C24.3041 22.8399 23.5999 22.883 22.0296 22.883C20.7732 22.883 19.8935 22.851 19.5797 22.8338V22.8399C14.7553 22.6259 11.1465 21.7897 11.1465 20.7899C11.1465 19.7889 14.7491 18.9539 19.581 18.74V21.9975C19.8997 22.0197 20.8004 22.075 22.0519 22.075C23.5505 22.075 24.3041 22.0148 24.4462 21.9975V18.7301C29.267 18.9429 32.8634 19.7791 32.8634 20.7801C32.8535 21.7799 29.2558 22.6149 24.4413 22.8338Z"
    fill="#26A17B"
  />
</svg>
