<svg width="44" height="44" viewBox="0 0 44 44" fill="none" xmlns="http://www.w3.org/2000/svg">
<path
    d="M43.5 22C43.5 33.8741 33.8741 43.5 22 43.5C10.1259 43.5 0.5 33.8741 0.5 22C0.5 10.1259 10.1259 0.5 22 0.5C33.8741 0.5 43.5 10.1259 43.5 22Z"
    fill="white"
    stroke="#E5E5E5"
  />
<path
    d="M12.5511 15.8405C17.7696 10.7198 26.2305 10.7198 31.449 15.8405L32.077 16.4568C32.3379 16.7129 32.3379 17.128 32.077 17.384L29.9286 19.4922C29.7981 19.6202 29.5866 19.6202 29.4561 19.4922L28.5918 18.6441C24.9513 15.0718 19.0488 15.0718 15.4082 18.6441L14.4826 19.5524C14.3522 19.6804 14.1406 19.6804 14.0102 19.5524L11.8617 17.4442C11.6008 17.1881 11.6008 16.773 11.8617 16.517L12.5511 15.8405ZM35.8922 20.2005L37.8043 22.0768C38.0652 22.3328 38.0652 22.748 37.8043 23.004L29.1824 31.4645C28.9215 31.7205 28.4984 31.7205 28.2375 31.4645C28.2375 31.4645 28.2375 31.4645 28.2375 31.4645L22.1182 25.4598C22.0529 25.3958 21.9472 25.3958 21.8819 25.4598C21.8819 25.4598 21.8819 25.4598 21.8819 25.4598L15.7628 31.4645C15.5018 31.7205 15.0788 31.7205 14.8179 31.4645C14.8179 31.4645 14.8179 31.4645 14.8179 31.4645L6.19569 23.0039C5.93477 22.7479 5.93477 22.3327 6.19569 22.0767L8.10783 20.2004C8.36875 19.9444 8.7918 19.9444 9.05272 20.2004L15.1721 26.2051C15.2374 26.2691 15.3431 26.2691 15.4084 26.2051C15.4084 26.2051 15.4084 26.2051 15.4084 26.2051L21.5275 20.2004C21.7884 19.9444 22.2114 19.9443 22.4723 20.2004C22.4724 20.2004 22.4724 20.2004 22.4724 20.2004L28.5918 26.2051C28.657 26.2691 28.7628 26.2691 28.828 26.2051L34.9473 20.2005C35.2082 19.9445 35.6313 19.9445 35.8922 20.2005Z"
    fill="#3B99FC"
  />
</svg>
