<svg width="24" height="24" viewBox="0 0 24 24" fill="none" xmlns="http://www.w3.org/2000/svg">
<path
    d="M6 22H21V20H6.012C5.55 19.988 5 19.805 5 19C5 18.195 5.55 18.012 6.012 18H21V4C21 2.897 20.103 2 19 2H6C4.794 2 3 2.799 3 5V19C3 21.201 4.794 22 6 22ZM5 5C5 4.195 5.55 4.012 6 4H19V16H5V5Z"
    fill="url(#paint0_linear)"
  />
<path d="M8 6H17V8H8V6Z" fill="url(#paint1_linear)" />
<defs>
<linearGradient id="paint0_linear" x1="3" y1="2" x2="21.3636" y2="2.44695" gradientUnits="userSpaceOnUse">
<stop stop-color="#5AC276" />
<stop offset="0.494792" stop-color="#59C3B1" />
<stop offset="1" stop-color="#6FD8C4" />
</linearGradient>
<linearGradient id="paint1_linear" x1="3" y1="2" x2="21.3636" y2="2.44695" gradientUnits="userSpaceOnUse">
<stop stop-color="#5AC276" />
<stop offset="0.494792" stop-color="#59C3B1" />
<stop offset="1" stop-color="#6FD8C4" />
</linearGradient>
</defs>
</svg>
